<svg xmlns="http://www.w3.org/2000/svg" viewBox="0 0 64 64" fill="none">
  <!-- 구름 -->
  <ellipse cx="32" cy="26" rx="16" ry="11" fill="#94A3B8" stroke="#64748B" stroke-width="1.5"/>
  <ellipse cx="22" cy="30" rx="10" ry="8" fill="#94A3B8" stroke="#64748B" stroke-width="1.5"/>
  <ellipse cx="42" cy="30" rx="10" ry="8" fill="#94A3B8" stroke="#64748B" stroke-width="1.5"/>
  <!-- 눈꽃 3개 -->
  <line x1="20" y1="44" x2="20" y2="53" stroke="#BAE6FD" stroke-width="2" stroke-linecap="round"/>
  <line x1="15.5" y1="48.5" x2="24.5" y2="48.5" stroke="#BAE6FD" stroke-width="2" stroke-linecap="round"/>
  <line x1="17" y1="45.5" x2="23" y2="51.5" stroke="#BAE6FD" stroke-width="1.5" stroke-linecap="round"/>
  <line x1="23" y1="45.5" x2="17" y2="51.5" stroke="#BAE6FD" stroke-width="1.5" stroke-linecap="round"/>

  <line x1="32" y1="43" x2="32" y2="53" stroke="#BAE6FD" stroke-width="2" stroke-linecap="round"/>
  <line x1="27" y1="48" x2="37" y2="48" stroke="#BAE6FD" stroke-width="2" stroke-linecap="round"/>
  <line x1="28.5" y1="44.5" x2="35.5" y2="51.5" stroke="#BAE6FD" stroke-width="1.5" stroke-linecap="round"/>
  <line x1="35.5" y1="44.5" x2="28.5" y2="51.5" stroke="#BAE6FD" stroke-width="1.5" stroke-linecap="round"/>

  <line x1="44" y1="44" x2="44" y2="53" stroke="#BAE6FD" stroke-width="2" stroke-linecap="round"/>
  <line x1="39.5" y1="48.5" x2="48.5" y2="48.5" stroke="#BAE6FD" stroke-width="2" stroke-linecap="round"/>
  <line x1="41" y1="45.5" x2="47" y2="51.5" stroke="#BAE6FD" stroke-width="1.5" stroke-linecap="round"/>
  <line x1="47" y1="45.5" x2="41" y2="51.5" stroke="#BAE6FD" stroke-width="1.5" stroke-linecap="round"/>
</svg>
